<?xml version="1.0" encoding="UTF-8"?>
<svg width="820" height="240" viewBox="0 0 820 240" preserveAspectRatio="xMidYMid meet" xmlns="http://www.w3.org/2000/svg" role="img" aria-label="Offshore workflow diagram">
  <defs>
    <style type="text/css"><![CDATA[
      .box { fill: #fff; stroke: #d1d5db; stroke-width:1.5; rx:8; }
      .title { font: 600 14px/1.2 'Inter', sans-serif; fill: #0f172a; }
      .sub { font: 400 12px/1.2 'Inter', sans-serif; fill: #374151; }
      .arrow { stroke:#3b82f6; stroke-width:2; fill:none; marker-end:url(#arrow); }
      .task { fill:#f8fafc; stroke:#c7d2fe; stroke-width:1; rx:6; }
    ]]></style>
    <marker id="arrow" viewBox="0 0 10 10" refX="9" refY="5" markerWidth="6" markerHeight="6" orient="auto">
      <path d="M 0 0 L 10 5 L 0 10 z" fill="#3b82f6" />
    </marker>
  </defs>

  <!-- Top row: Customer - BrSE - Dev -->
  <g transform="translate(40,16)">
    <rect class="box" x="0" y="0" width="180" height="56" rx="8"/>
    <text class="title" x="90" y="22" text-anchor="middle">Khách hàng (JP)</text>
    <text class="sub" x="90" y="40" text-anchor="middle">Yêu cầu, meeting, feedback</text>

    <rect class="box" x="220" y="0" width="240" height="56" rx="8"/>
    <text class="title" x="340" y="22" text-anchor="middle">BrSE / Comtor</text>
    <text class="sub" x="340" y="40" text-anchor="middle">Bridge / Translate / QA / PM</text>

    <rect class="box" x="520" y="0" width="180" height="56" rx="8"/>
    <text class="title" x="610" y="22" text-anchor="middle">Dev Team (VN)</text>
    <text class="sub" x="610" y="40" text-anchor="middle">Implementation</text>

    <!-- Arrows -->
    <path class="arrow" d="M200 28 L218 28" />
    <path class="arrow" d="M460 28 L520 28" />
    <path class="arrow" d="M520 28 L460 28" />
    <path class="arrow" d="M218 46 L200 46" />

    <!-- Vertical arrow from BrSE down to tasks -->
    <path class="arrow" d="M340 56 L340 90" />
  </g>

  <!-- Tasks under BrSE -->
  <g transform="translate(40,110)">
    <rect class="task" x="0" y="0" width="240" height="90" rx="6"/>
    <text class="title" x="20" y="20">1) Giao tiếp với khách hàng</text>
    <text class="sub" x="20" y="38">Email keigo, meeting, confirm, negotiation</text>

    <rect class="task" x="280" y="0" width="240" height="90" rx="6"/>
    <text class="title" x="300" y="20">2) Yêu cầu & Specification</text>
    <text class="sub" x="300" y="38">Đọc JP, tóm tắt, confirm-questions, format</text>

    <rect class="task" x="560" y="0" width="240" height="90" rx="6"/>
    <text class="title" x="580" y="20">3) Quản lý team & tiến độ</text>
    <text class="sub" x="580" y="38">Onboarding, báo cáo, estimate, action-tracking</text>
  </g>
</svg>
